<svg width="60" height="60" viewBox="0 0 60 60" fill="none" xmlns="http://www.w3.org/2000/svg">
<path fill-rule="evenodd" clip-rule="evenodd" d="M30 56.25C36.9619 56.25 43.6387 53.4844 48.5616 48.5616C53.4844 43.6387 56.25 36.9619 56.25 30C56.25 23.0381 53.4844 16.3613 48.5616 11.4384C43.6387 6.51562 36.9619 3.75 30 3.75C23.0381 3.75 16.3613 6.51562 11.4384 11.4384C6.51562 16.3613 3.75 23.0381 3.75 30C3.75 36.9619 6.51562 43.6387 11.4384 48.5616C16.3613 53.4844 23.0381 56.25 30 56.25ZM30 60C37.9565 60 45.5871 56.8393 51.2132 51.2132C56.8393 45.5871 60 37.9565 60 30C60 22.0435 56.8393 14.4129 51.2132 8.7868C45.5871 3.16071 37.9565 0 30 0C22.0435 0 14.4129 3.16071 8.7868 8.7868C3.16071 14.4129 0 22.0435 0 30C0 37.9565 3.16071 45.5871 8.7868 51.2132C14.4129 56.8393 22.0435 60 30 60Z" fill="#11BFBD"/>
<path fill-rule="evenodd" clip-rule="evenodd" d="M41.1376 18.6373C41.6624 18.1171 42.3709 17.8243 43.1098 17.8223C43.8488 17.8202 44.5589 18.1091 45.0866 18.6264C45.6142 19.1438 45.9171 19.848 45.9297 20.5868C45.9423 21.3257 45.6636 22.0398 45.1539 22.5748L30.1839 41.2873C29.9266 41.5645 29.616 41.7868 29.2709 41.9412C28.9257 42.0956 28.5529 42.1787 28.1748 42.1858C27.7967 42.1928 27.4211 42.1234 27.0704 41.982C26.7198 41.8405 26.4012 41.6297 26.1339 41.3623L16.2151 31.4398C15.9388 31.1824 15.7171 30.8719 15.5634 30.5269C15.4097 30.1819 15.327 29.8094 15.3204 29.4318C15.3137 29.0542 15.3832 28.679 15.5246 28.3288C15.6661 27.9786 15.8766 27.6605 16.1437 27.3934C16.4108 27.1264 16.7289 26.9158 17.0791 26.7744C17.4293 26.6329 17.8044 26.5635 18.1821 26.5701C18.5597 26.5768 18.9321 26.6594 19.2771 26.8132C19.6221 26.9669 19.9326 27.1885 20.1901 27.4648L28.0426 35.3136L41.0664 18.7198C41.0896 18.6908 41.1146 18.6632 41.1414 18.6373H41.1376Z" fill="#11BFBD"/>
</svg>
