<svg width="12" height="8" viewBox="0 0 12 8" fill="none" xmlns="http://www.w3.org/2000/svg">
<path d="M9.87999 1.28995L5.99999 5.16995L2.11999 1.28995C2.02741 1.19736 1.9175 1.12392 1.79653 1.07382C1.67557 1.02371 1.54592 0.997925 1.41499 0.997925C1.28406 0.997925 1.15441 1.02371 1.03345 1.07382C0.912482 1.12392 0.802571 1.19736 0.70999 1.28995C0.617408 1.38253 0.543968 1.49244 0.493863 1.6134C0.443758 1.73437 0.417969 1.86401 0.417969 1.99495C0.417969 2.12588 0.443758 2.25552 0.493863 2.37649C0.543968 2.49745 0.617408 2.60736 0.70999 2.69995L5.29999 7.28995C5.68999 7.67995 6.31999 7.67995 6.70999 7.28995L11.3 2.69995C11.3927 2.60743 11.4662 2.49754 11.5164 2.37657C11.5666 2.2556 11.5924 2.12591 11.5924 1.99495C11.5924 1.86398 11.5666 1.73429 11.5164 1.61332C11.4662 1.49235 11.3927 1.38246 11.3 1.28995C10.91 0.909946 10.27 0.899946 9.87999 1.28995Z" fill="#C4C4C4"/>
</svg>
