<svg width="10" height="20" viewBox="0 0 10 20" fill="none" xmlns="http://www.w3.org/2000/svg">
<path d="M8.44006 19.3333C8.24086 19.3339 8.04405 19.29 7.86408 19.2046C7.6841 19.1192 7.52555 18.9946 7.40006 18.8399L0.960056 10.8399C0.763947 10.6013 0.656738 10.3021 0.656738 9.99325C0.656738 9.68442 0.763947 9.38516 0.960056 9.14659L7.62672 1.14659C7.85304 0.874298 8.17826 0.703065 8.53082 0.670559C8.88339 0.638053 9.23443 0.746935 9.50672 0.973253C9.77901 1.19957 9.95024 1.52479 9.98275 1.87736C10.0153 2.22992 9.90637 2.58096 9.68006 2.85325L3.72006 9.99992L9.48005 17.1466C9.6431 17.3423 9.74667 17.5806 9.77851 17.8334C9.81035 18.0861 9.76912 18.3426 9.65972 18.5727C9.55031 18.8027 9.3773 18.9966 9.16115 19.1314C8.945 19.2662 8.69477 19.3362 8.44006 19.3333Z" fill="#858585"/>
</svg>
