<svg width="85" height="23" viewBox="0 0 85 23" fill="none" xmlns="http://www.w3.org/2000/svg">
    <rect width="293" height="126" transform="translate(-38 -26)" fill="white"/>
    <path d="M41.979 20.7507V0H45.72V20.746H41.979V20.7507Z" fill="#010118"/>
    <path d="M40.4202 13.8001C40.4202 11.6834 39.7883 9.98954 38.5246 8.71857C37.2608 7.44761 35.5611 6.8129 33.4253 6.81446C32.1448 6.79452 30.8833 7.12184 29.7786 7.76067C28.7128 8.38358 27.8471 9.29062 27.2811 10.3774C26.6774 11.5382 26.3722 12.8275 26.3926 14.1318C26.3926 16.342 27.0647 18.1013 28.409 19.4096C29.7533 20.718 31.521 21.3714 33.712 21.3698C34.4911 21.3758 35.2669 21.2703 36.0152 21.0567C36.6653 20.8732 37.2784 20.5808 37.8279 20.1923C38.2956 19.8542 38.7204 19.462 39.0932 19.0241C39.3926 18.6676 39.6538 18.2817 39.8728 17.8723L37.2118 16.2976C36.3209 17.5857 35.1535 18.229 33.7097 18.2274C32.6939 18.2274 31.8725 17.9611 31.2454 17.4284C30.6044 16.8658 30.2144 16.0767 30.1601 15.2323H40.3491C40.4012 14.8374 40.4202 14.3561 40.4202 13.8001ZM30.2478 12.5782C30.3204 11.8483 30.6699 11.1724 31.2264 10.6858C31.8279 10.181 32.6006 9.91902 33.3898 9.95215C34.2249 9.91594 35.0453 10.1781 35.7001 10.6904C35.9869 10.9228 36.2235 11.2097 36.3956 11.5339C36.5678 11.8582 36.6722 12.2134 36.7024 12.5782H30.2478Z" fill="#010118"/>
    <path d="M61.3062 13.9262C61.2265 9.98336 58.1168 6.8136 54.2948 6.8136C50.4189 6.8136 47.2788 10.0703 47.2788 14.0977C47.2788 18.1251 50.4189 21.37 54.2948 21.37C55.8122 21.3697 57.2863 20.8629 58.4847 19.9297V21.0763H61.2968V14.0977C61.3085 14.0389 61.3085 13.9873 61.3062 13.9262ZM54.1519 18.2896C51.8835 18.2896 50.0416 16.3816 50.0416 14.0319C50.0416 11.6822 51.8835 9.77424 54.1519 9.77424C56.4202 9.77424 58.2574 11.6798 58.2574 14.0319C58.2574 16.384 56.4202 18.2966 54.1519 18.2966V18.2896Z" fill="#010118"/>
    <path d="M84.9985 13.9262C84.9188 9.98336 81.8115 6.8136 77.9872 6.8136C74.1136 6.8136 70.9712 10.0703 70.9712 14.0977C70.9712 18.1251 74.1136 21.37 77.9872 21.37C79.5052 21.3693 80.9799 20.8626 82.1794 19.9297V21.0763H84.9914V14.0977C85.0008 14.0389 85.0008 13.9873 84.9985 13.9262ZM77.8442 18.2896C75.5759 18.2896 73.7363 16.3816 73.7363 14.0319C73.7363 11.6822 75.5759 9.77424 77.8442 9.77424C80.1126 9.77424 81.9521 11.6798 81.9521 14.0319C81.9521 16.384 80.1126 18.2966 77.8442 18.2966V18.2896Z" fill="#010118"/>
    <path d="M70.0361 6.8136V10.3194H68.545C68.07 10.3206 67.6149 10.5061 67.279 10.8355C66.9432 11.1648 66.754 11.6111 66.7527 12.0769V20.7506H63.1777V10.8912C63.1809 9.80912 63.6213 8.77233 64.4024 8.00802C65.1836 7.24372 66.2419 6.81421 67.3454 6.8136H70.0361Z" fill="#010118"/>
    <g filter="url(#filter0_d)">
        <ellipse cx="16.4722" cy="7.15359" rx="3.09423" ry="2.98819" fill="url(#paint0_radial)"/>
    </g>
    <mask id="path-7-inside-1" fill="white">
        <path d="M20.9169 12.036C21.0308 14.1763 20.4782 16.2994 19.3345 18.1156C18.1908 19.9318 16.5117 21.3527 14.5264 22.1843C12.5411 23.0158 10.3462 23.2176 8.24138 22.7621C6.13654 22.3066 4.22423 21.2159 2.76543 19.639C1.30662 18.062 0.372379 16.0756 0.0901929 13.9508C-0.191993 11.826 0.191625 9.66629 1.1887 7.76645C2.18577 5.86661 3.74772 4.31916 5.6614 3.33527C7.57507 2.35139 9.74726 1.97901 11.8815 2.26894L11.3934 5.82642C9.99499 5.63645 8.57177 5.88044 7.31792 6.52509C6.06406 7.16973 5.04066 8.18363 4.38738 9.42842C3.73409 10.6732 3.48274 12.0882 3.66763 13.4804C3.85252 14.8726 4.46464 16.1741 5.42046 17.2073C6.37628 18.2406 7.62923 18.9552 9.00833 19.2536C10.3874 19.5521 11.8255 19.4199 13.1263 18.875C14.4271 18.3302 15.5272 17.3992 16.2766 16.2093C17.0259 15.0193 17.388 13.6282 17.3134 12.2259L20.9169 12.036Z"/>
    </mask>
    <path d="M20.9169 12.036C21.0308 14.1763 20.4782 16.2994 19.3345 18.1156C18.1908 19.9318 16.5117 21.3527 14.5264 22.1843C12.5411 23.0158 10.3462 23.2176 8.24138 22.7621C6.13654 22.3066 4.22423 21.2159 2.76543 19.639C1.30662 18.062 0.372379 16.0756 0.0901929 13.9508C-0.191993 11.826 0.191625 9.66629 1.1887 7.76645C2.18577 5.86661 3.74772 4.31916 5.6614 3.33527C7.57507 2.35139 9.74726 1.97901 11.8815 2.26894L11.3934 5.82642C9.99499 5.63645 8.57177 5.88044 7.31792 6.52509C6.06406 7.16973 5.04066 8.18363 4.38738 9.42842C3.73409 10.6732 3.48274 12.0882 3.66763 13.4804C3.85252 14.8726 4.46464 16.1741 5.42046 17.2073C6.37628 18.2406 7.62923 18.9552 9.00833 19.2536C10.3874 19.5521 11.8255 19.4199 13.1263 18.875C14.4271 18.3302 15.5272 17.3992 16.2766 16.2093C17.0259 15.0193 17.388 13.6282 17.3134 12.2259L20.9169 12.036Z" stroke="url(#paint1_linear)" stroke-width="120" mask="url(#path-7-inside-1)"/>
    <defs>
        <filter id="filter0_d" x="-21.6221" y="-22.8346" width="68.1885" height="67.9764" filterUnits="userSpaceOnUse" color-interpolation-filters="sRGB">
            <feFlood flood-opacity="0" result="BackgroundImageFix"/>
            <feColorMatrix in="SourceAlpha" type="matrix" values="0 0 0 0 0 0 0 0 0 0 0 0 0 0 0 0 0 0 127 0"/>
            <feOffset dx="-4" dy="4"/>
            <feGaussianBlur stdDeviation="15.5"/>
            <feColorMatrix type="matrix" values="0 0 0 0 0.545625 0 0 0 0 0.675 0 0 0 0 0.659177 0 0 0 0.54 0"/>
            <feBlend mode="normal" in2="BackgroundImageFix" result="effect1_dropShadow"/>
            <feBlend mode="normal" in="SourceGraphic" in2="effect1_dropShadow" result="shape"/>
        </filter>
        <radialGradient id="paint0_radial" cx="0" cy="0" r="1" gradientUnits="userSpaceOnUse" gradientTransform="translate(16.6734 7.15359) rotate(95.4216) scale(8.25855 6.34417)">
            <stop stop-color="#5BFFC4"/>
            <stop offset="0.665855" stop-color="#66C8FF"/>
        </radialGradient>
        <linearGradient id="paint1_linear" x1="23.548" y1="23" x2="-7.50975" y2="3.3842" gradientUnits="userSpaceOnUse">
            <stop stop-color="#5BFFC4"/>
            <stop offset="1" stop-color="#66C8FF"/>
        </linearGradient>
    </defs>
</svg>
