<svg width="18" height="18" viewBox="0 0 18 18" fill="none" xmlns="http://www.w3.org/2000/svg">
<path d="M8.99995 7.125C8.62911 7.125 8.26659 7.23497 7.95825 7.44099C7.64991 7.64702 7.40959 7.93986 7.26767 8.28247C7.12576 8.62508 7.08863 9.00208 7.16097 9.3658C7.23332 9.72951 7.4119 10.0636 7.67412 10.3258C7.93634 10.588 8.27044 10.7666 8.63415 10.839C8.99787 10.9113 9.37487 10.8742 9.71748 10.7323C10.0601 10.5904 10.3529 10.35 10.559 10.0417C10.765 9.73335 10.8749 9.37084 10.8749 9C10.8749 8.50272 10.6774 8.02581 10.3258 7.67417C9.97414 7.32254 9.49723 7.125 8.99995 7.125ZM8.99995 9.625C8.87633 9.625 8.7555 9.58834 8.65271 9.51967C8.54993 9.45099 8.46983 9.35338 8.42252 9.23918C8.37522 9.12497 8.36284 8.99931 8.38696 8.87807C8.41107 8.75683 8.4706 8.64547 8.558 8.55806C8.64541 8.47065 8.75678 8.41113 8.87801 8.38701C8.99925 8.36289 9.12492 8.37527 9.23912 8.42257C9.35333 8.46988 9.45094 8.54999 9.51962 8.65277C9.58829 8.75555 9.62495 8.87639 9.62495 9C9.62495 9.16576 9.5591 9.32473 9.44189 9.44194C9.32468 9.55915 9.16571 9.625 8.99995 9.625ZM17.6437 9.28125L15.1437 5.53125C15.0871 5.44527 15.0101 5.37461 14.9196 5.32555C14.8291 5.27648 14.7279 5.25053 14.6249 5.25H10.5062L9.62495 4.36875V4H12.7499C12.9157 4 13.0747 3.93415 13.1919 3.81694C13.3091 3.69973 13.3749 3.54076 13.3749 3.375V0.875C13.3749 0.70924 13.3091 0.550268 13.1919 0.433058C13.0747 0.315848 12.9157 0.25 12.7499 0.25H8.99995C8.83419 0.25 8.67521 0.315848 8.558 0.433058C8.44079 0.550268 8.37495 0.70924 8.37495 0.875V4.36875L7.4937 5.25H3.37495C3.272 5.25053 3.17079 5.27648 3.08029 5.32555C2.98979 5.37461 2.91281 5.44527 2.8562 5.53125L0.356195 9.28125C0.30134 9.37626 0.272461 9.48404 0.272461 9.59375C0.272461 9.70346 0.30134 9.81124 0.356195 9.90625C0.405104 10.0039 0.478731 10.087 0.569745 10.1473C0.66076 10.2076 0.765986 10.243 0.874945 10.25H1.49995V16.5C1.33418 16.5 1.17521 16.5658 1.058 16.6831C0.940793 16.8003 0.874945 16.9592 0.874945 17.125C0.874945 17.2908 0.940793 17.4497 1.058 17.5669C1.17521 17.6842 1.33418 17.75 1.49995 17.75H16.4999C16.6657 17.75 16.8247 17.6842 16.9419 17.5669C17.0591 17.4497 17.1249 17.2908 17.1249 17.125C17.1249 16.9592 17.0591 16.8003 16.9419 16.6831C16.8247 16.5658 16.6657 16.5 16.4999 16.5V10.25H17.1249C17.238 10.2497 17.3489 10.2187 17.4457 10.1604C17.5426 10.1021 17.6218 10.0185 17.6749 9.91875C17.7275 9.81949 17.7523 9.70789 17.7468 9.59571C17.7413 9.48353 17.7057 9.3749 17.6437 9.28125ZM14.2874 6.5L15.9562 9H13.3749V8.375C13.3754 8.29275 13.3597 8.21121 13.3286 8.13506C13.2975 8.05891 13.2516 7.98965 13.1937 7.93125L11.7562 6.5H14.2874ZM9.62495 1.5H12.1249V2.75H9.62495V1.5ZM3.71245 6.5H6.2437L4.8062 7.93125C4.74827 7.98965 4.70244 8.05891 4.67134 8.13506C4.64024 8.21121 4.62447 8.29275 4.62495 8.375V9H2.0437L3.71245 6.5ZM2.74995 10.25H4.62495V16.5H2.74995V10.25ZM8.37495 16.5V14.625H9.62495V16.5H8.37495ZM10.8749 16.5V14C10.8749 13.8342 10.8091 13.6753 10.6919 13.5581C10.5747 13.4408 10.4157 13.375 10.2499 13.375H7.74995C7.58419 13.375 7.42521 13.4408 7.308 13.5581C7.19079 13.6753 7.12495 13.8342 7.12495 14V16.5H5.87495V8.63125L8.1937 6.31875L8.99995 5.50625L12.1249 8.63125V16.5H10.8749ZM15.2499 16.5H13.3749V10.25H15.2499V16.5ZM8.37495 12.125C8.37495 12.2486 8.33829 12.3695 8.26961 12.4722C8.20094 12.575 8.10333 12.6551 7.98912 12.7024C7.87492 12.7497 7.74925 12.7621 7.62801 12.738C7.50678 12.7139 7.39541 12.6544 7.308 12.5669C7.2206 12.4795 7.16107 12.3682 7.13696 12.2469C7.11284 12.1257 7.12522 12 7.17252 11.8858C7.21983 11.7716 7.29993 11.674 7.40271 11.6053C7.5055 11.5367 7.62633 11.5 7.74995 11.5C7.91571 11.5 8.07468 11.5658 8.19189 11.6831C8.3091 11.8003 8.37495 11.9592 8.37495 12.125ZM10.8749 12.125C10.8749 12.2486 10.8383 12.3695 10.7696 12.4722C10.7009 12.575 10.6033 12.6551 10.4891 12.7024C10.3749 12.7497 10.2493 12.7621 10.128 12.738C10.0068 12.7139 9.89541 12.6544 9.808 12.5669C9.7206 12.4795 9.66107 12.3682 9.63696 12.2469C9.61284 12.1257 9.62522 12 9.67252 11.8858C9.71983 11.7716 9.79993 11.674 9.90271 11.6053C10.0055 11.5367 10.1263 11.5 10.2499 11.5C10.4157 11.5 10.5747 11.5658 10.6919 11.6831C10.8091 11.8003 10.8749 11.9592 10.8749 12.125Z" fill="#C4C4C4"/>
</svg>
