<svg width="12" height="12" viewBox="0 0 12 12" fill="none" xmlns="http://www.w3.org/2000/svg">
<path d="M11.3547 9.0357e-07H0.656094C0.4674 -0.000356023 0.29441 0.105056 0.208153 0.27293C0.120706 0.443064 0.136054 0.647939 0.247772 0.803321L4.16729 6.32472C4.1686 6.32662 4.17002 6.3284 4.17133 6.33031C4.31375 6.52257 4.39072 6.75541 4.3912 6.99478V11.4963C4.39037 11.6297 4.44272 11.7577 4.53671 11.8523C4.6307 11.9469 4.75847 11.9999 4.89173 11.9999C4.95954 11.9999 5.02653 11.9864 5.08911 11.9604L7.29157 11.1206C7.48895 11.0604 7.61995 10.8742 7.61995 10.6499V6.99478C7.6203 6.75553 7.6974 6.52257 7.83969 6.33031C7.841 6.3284 7.84243 6.32662 7.84374 6.32472L11.7631 0.803083C11.8749 0.64782 11.8902 0.443064 11.8028 0.27293C11.7165 0.105056 11.5435 -0.000356023 11.3547 9.0357e-07ZM7.34856 5.96946C7.12965 6.26654 7.01127 6.62572 7.01056 6.99478V10.5759L5.00035 11.3424V6.99478C4.99964 6.62572 4.88126 6.26654 4.66222 5.96946L0.857043 0.609153H11.1539L7.34856 5.96946Z" fill="black"/>
</svg>
