<svg width="32" height="32" viewBox="0 0 32 32" fill="none" xmlns="http://www.w3.org/2000/svg">
<path d="M15.9993 1.99963C13.083 2.00311 10.2871 3.16315 8.22493 5.2253C6.16278 7.28744 5.00274 10.0833 4.99927 12.9996C4.99927 22.4118 14.9993 29.5211 15.425 29.819C15.5934 29.9366 15.7939 29.9997 15.9993 29.9997C16.2047 29.9997 16.4051 29.9366 16.5735 29.819C16.9993 29.5211 26.9993 22.4118 26.9993 12.9996C26.9958 10.0833 25.8358 7.28744 23.7736 5.2253C21.7115 3.16315 18.9156 2.00311 15.9993 1.99963ZM16 9.00001C16.7911 9.00001 17.5645 9.23461 18.2223 9.67413C18.8801 10.1137 19.3928 10.7384 19.6955 11.4693C19.9983 12.2002 20.0775 13.0044 19.9232 13.7804C19.7688 14.5563 19.3879 15.269 18.8284 15.8284C18.269 16.3878 17.5563 16.7688 16.7804 16.9232C16.0045 17.0775 15.2002 16.9983 14.4693 16.6955C13.7384 16.3928 13.1137 15.8801 12.6741 15.2223C12.2346 14.5645 12 13.7911 12 13C12 11.9391 12.4214 10.9217 13.1716 10.1716C13.9217 9.42144 14.9392 9.00001 16 9.00001Z" fill="#E06A52"/>
</svg>
