<svg width="20" height="20" viewBox="0 0 20 20" fill="none" xmlns="http://www.w3.org/2000/svg">
<path d="M17.5 4.99997H14.0063L10.8813 1.87497C10.647 1.64215 10.3302 1.51147 10 1.51147C9.66977 1.51147 9.35295 1.64215 9.11875 1.87497L5.99375 4.99997H2.5C2.16848 4.99997 1.85054 5.13166 1.61612 5.36608C1.3817 5.6005 1.25 5.91844 1.25 6.24997V18.125C1.25 18.2907 1.31585 18.4497 1.43306 18.5669C1.55027 18.6841 1.70924 18.75 1.875 18.75H18.125C18.2908 18.75 18.4497 18.6841 18.5669 18.5669C18.6842 18.4497 18.75 18.2907 18.75 18.125V6.24997C18.75 5.91844 18.6183 5.6005 18.3839 5.36608C18.1495 5.13166 17.8315 4.99997 17.5 4.99997ZM2.5 6.24997H5.625V17.5H2.5V6.24997ZM9.375 17.5V14.375H10.625V17.5H9.375ZM11.875 17.5V13.75C11.875 13.5842 11.8092 13.4252 11.6919 13.308C11.5747 13.1908 11.4158 13.125 11.25 13.125H8.75C8.58424 13.125 8.42527 13.1908 8.30806 13.308C8.19085 13.4252 8.125 13.5842 8.125 13.75V17.5H6.875V5.88122L10 2.75622L13.125 5.88122V17.5H11.875ZM17.5 17.5H14.375V6.24997H17.5V17.5Z" fill="#C4C4C4"/>
<path d="M10 6.25C9.62916 6.25 9.26665 6.35997 8.95831 6.56599C8.64996 6.77202 8.40964 7.06486 8.26773 7.40747C8.12581 7.75008 8.08868 8.12708 8.16103 8.49079C8.23338 8.85451 8.41195 9.1886 8.67418 9.45083C8.9364 9.71305 9.27049 9.89163 9.63421 9.96397C9.99792 10.0363 10.3749 9.99919 10.7175 9.85727C11.0601 9.71536 11.353 9.47504 11.559 9.16669C11.765 8.85835 11.875 8.49584 11.875 8.125C11.875 7.62772 11.6775 7.15081 11.3258 6.79917C10.9742 6.44754 10.4973 6.25 10 6.25ZM10 8.75C9.87639 8.75 9.75555 8.71334 9.65277 8.64467C9.54999 8.57599 9.46988 8.47838 9.42258 8.36418C9.37527 8.24997 9.36289 8.12431 9.38701 8.00307C9.41113 7.88183 9.47065 7.77047 9.55806 7.68306C9.64547 7.59565 9.75683 7.53612 9.87807 7.51201C9.99931 7.48789 10.125 7.50027 10.2392 7.54758C10.3534 7.59488 10.451 7.67499 10.5197 7.77777C10.5883 7.88055 10.625 8.00139 10.625 8.125C10.625 8.29076 10.5592 8.44973 10.4419 8.56694C10.3247 8.68415 10.1658 8.75 10 8.75Z" fill="#C4C4C4"/>
<path d="M4.375 10H3.75C3.58424 10 3.42527 10.0658 3.30806 10.1831C3.19085 10.3003 3.125 10.4592 3.125 10.625C3.125 10.7908 3.19085 10.9497 3.30806 11.0669C3.42527 11.1842 3.58424 11.25 3.75 11.25H4.375C4.54076 11.25 4.69973 11.1842 4.81694 11.0669C4.93415 10.9497 5 10.7908 5 10.625C5 10.4592 4.93415 10.3003 4.81694 10.1831C4.69973 10.0658 4.54076 10 4.375 10Z" fill="#C4C4C4"/>
<path d="M4.375 12.5H3.75C3.58424 12.5 3.42527 12.5658 3.30806 12.6831C3.19085 12.8003 3.125 12.9592 3.125 13.125C3.125 13.2908 3.19085 13.4497 3.30806 13.5669C3.42527 13.6842 3.58424 13.75 3.75 13.75H4.375C4.54076 13.75 4.69973 13.6842 4.81694 13.5669C4.93415 13.4497 5 13.2908 5 13.125C5 12.9592 4.93415 12.8003 4.81694 12.6831C4.69973 12.5658 4.54076 12.5 4.375 12.5Z" fill="#C4C4C4"/>
<path d="M4.375 15H3.75C3.58424 15 3.42527 15.0658 3.30806 15.1831C3.19085 15.3003 3.125 15.4592 3.125 15.625C3.125 15.7908 3.19085 15.9497 3.30806 16.0669C3.42527 16.1842 3.58424 16.25 3.75 16.25H4.375C4.54076 16.25 4.69973 16.1842 4.81694 16.0669C4.93415 15.9497 5 15.7908 5 15.625C5 15.4592 4.93415 15.3003 4.81694 15.1831C4.69973 15.0658 4.54076 15 4.375 15Z" fill="#C4C4C4"/>
<path d="M15.625 11.25H16.25C16.4158 11.25 16.5747 11.1842 16.6919 11.0669C16.8092 10.9497 16.875 10.7908 16.875 10.625C16.875 10.4592 16.8092 10.3003 16.6919 10.1831C16.5747 10.0658 16.4158 10 16.25 10H15.625C15.4592 10 15.3003 10.0658 15.1831 10.1831C15.0658 10.3003 15 10.4592 15 10.625C15 10.7908 15.0658 10.9497 15.1831 11.0669C15.3003 11.1842 15.4592 11.25 15.625 11.25Z" fill="#C4C4C4"/>
<path d="M15.625 13.75H16.25C16.4158 13.75 16.5747 13.6842 16.6919 13.5669C16.8092 13.4497 16.875 13.2908 16.875 13.125C16.875 12.9592 16.8092 12.8003 16.6919 12.6831C16.5747 12.5658 16.4158 12.5 16.25 12.5H15.625C15.4592 12.5 15.3003 12.5658 15.1831 12.6831C15.0658 12.8003 15 12.9592 15 13.125C15 13.2908 15.0658 13.4497 15.1831 13.5669C15.3003 13.6842 15.4592 13.75 15.625 13.75Z" fill="#C4C4C4"/>
<path d="M16.25 15H15.625C15.4592 15 15.3003 15.0658 15.1831 15.1831C15.0658 15.3003 15 15.4592 15 15.625C15 15.7908 15.0658 15.9497 15.1831 16.0669C15.3003 16.1842 15.4592 16.25 15.625 16.25H16.25C16.4158 16.25 16.5747 16.1842 16.6919 16.0669C16.8092 15.9497 16.875 15.7908 16.875 15.625C16.875 15.4592 16.8092 15.3003 16.6919 15.1831C16.5747 15.0658 16.4158 15 16.25 15Z" fill="#C4C4C4"/>
<path d="M3.75 8.75H4.375C4.54076 8.75 4.69973 8.68415 4.81694 8.56694C4.93415 8.44973 5 8.29076 5 8.125C5 7.95924 4.93415 7.80027 4.81694 7.68306C4.69973 7.56585 4.54076 7.5 4.375 7.5H3.75C3.58424 7.5 3.42527 7.56585 3.30806 7.68306C3.19085 7.80027 3.125 7.95924 3.125 8.125C3.125 8.29076 3.19085 8.44973 3.30806 8.56694C3.42527 8.68415 3.58424 8.75 3.75 8.75Z" fill="#C4C4C4"/>
<path d="M15.625 8.75H16.25C16.4158 8.75 16.5747 8.68415 16.6919 8.56694C16.8092 8.44973 16.875 8.29076 16.875 8.125C16.875 7.95924 16.8092 7.80027 16.6919 7.68306C16.5747 7.56585 16.4158 7.5 16.25 7.5H15.625C15.4592 7.5 15.3003 7.56585 15.1831 7.68306C15.0658 7.80027 15 7.95924 15 8.125C15 8.29076 15.0658 8.44973 15.1831 8.56694C15.3003 8.68415 15.4592 8.75 15.625 8.75Z" fill="#C4C4C4"/>
</svg>
