<svg width="16" height="16" viewBox="0 0 16 16" fill="none" xmlns="http://www.w3.org/2000/svg">
<g clip-path="url(#clip1)">
<path d="M11.5174 12.7273H4.48255C3.82414 12.7273 3.19269 12.4434 2.72712 11.938C2.26155 11.4327 2 10.7472 2 10.0325V7.13643C2.00155 7.00779 2.04932 6.88489 2.13312 6.79392C2.21693 6.70295 2.33015 6.6511 2.44865 6.64941H13.5513C13.6703 6.64941 13.7845 6.70072 13.8686 6.79206C13.9527 6.88339 14 7.00726 14 7.13643V10.026C14 10.7413 13.7386 11.4274 13.2732 11.9339C12.8078 12.4403 12.1764 12.7256 11.5174 12.7273ZM2.89731 7.62344V10.0325C2.90047 10.4867 3.06887 10.921 3.36582 11.2409C3.66277 11.5608 4.06418 11.7403 4.48255 11.7403H11.5174C11.9384 11.7386 12.3416 11.5559 12.6387 11.2321C12.9359 10.9084 13.1027 10.47 13.1027 10.0131V7.62344H2.89731Z" fill="#009099"/>
<path d="M10.0157 14.0005H5.98382C5.53937 14.0145 5.10779 13.8375 4.78292 13.508C4.45805 13.1785 4.26618 12.723 4.24902 12.2407H5.14633C5.16317 12.4658 5.25995 12.6749 5.41623 12.824C5.5725 12.973 5.77604 13.0503 5.98382 13.0394H10.0157C10.2223 13.0538 10.4259 12.9795 10.5825 12.8325C10.7392 12.6856 10.8364 12.4777 10.8532 12.2537H11.7505C11.7303 12.7337 11.5371 13.1858 11.2126 13.5126C10.888 13.8394 10.4582 14.0146 10.0157 14.0005Z" fill="#009099"/>
<path d="M3.93205 7.62338C3.81306 7.62338 3.69895 7.57207 3.61481 7.48073C3.53067 7.3894 3.4834 7.26553 3.4834 7.13636V2.48701C3.4834 2.35785 3.53067 2.23398 3.61481 2.14264C3.69895 2.05131 3.81306 2 3.93205 2H7.02477C7.14328 2.00168 7.2565 2.05353 7.34031 2.1445C7.42411 2.23547 7.47188 2.35837 7.47343 2.48701V3.55195C7.47343 3.68111 7.42616 3.80499 7.34202 3.89632C7.25788 3.98765 7.14376 4.03896 7.02477 4.03896C6.90578 4.03896 6.79167 3.98765 6.70753 3.89632C6.62339 3.80499 6.57612 3.68111 6.57612 3.55195V2.97403H4.39267V7.13636C4.39189 7.20117 4.37936 7.26518 4.35578 7.32473C4.33221 7.38428 4.29807 7.43821 4.25529 7.48344C4.21252 7.52866 4.16196 7.5643 4.1065 7.58831C4.05103 7.61232 3.99176 7.62423 3.93205 7.62338Z" fill="#009099"/>
</g>
<defs>
<clipPath id="clip1">
<rect width="16" height="16" fill="white"/>
</clipPath>
</defs>
</svg>
