<svg width="16" height="16" viewBox="0 0 16 16" fill="none" xmlns="http://www.w3.org/2000/svg">
<g clip-path="url(#clip0)">
<path d="M2.50513 14C2.3718 13.9982 2.24442 13.9418 2.15013 13.8429C2.05584 13.744 2.0021 13.6104 2.00036 13.4706V9.23529C1.99011 9.17696 1.99011 9.11716 2.00036 9.05882L3.00989 6.15059V2.52941C3.01164 2.38957 3.06538 2.25597 3.15966 2.15708C3.25395 2.05819 3.38133 2.00183 3.51466 2H12.6005C12.7338 2.00183 12.8612 2.05819 12.9555 2.15708C13.0498 2.25597 13.1035 2.38957 13.1052 2.52941V6.15765L13.9802 8.98118C13.9867 9.03508 13.9867 9.08963 13.9802 9.14353V13.3788C13.9802 13.5192 13.927 13.6539 13.8323 13.7532C13.7377 13.8525 13.6093 13.9082 13.4754 13.9082C13.3415 13.9082 13.2131 13.8525 13.1185 13.7532C13.0238 13.6539 12.9706 13.5192 12.9706 13.3788V9.20706L12.0957 6.41176C12.0851 6.35346 12.0851 6.2936 12.0957 6.23529V3.05882H4.01943V6.23529C4.02967 6.29363 4.02967 6.35343 4.01943 6.41176L3.00989 9.32706V13.4706C3.00815 13.6104 2.95441 13.744 2.86012 13.8429C2.76584 13.9418 2.63846 13.9982 2.50513 14Z" fill="#009099"/>
<path d="M11.9271 12.5884H2.50477C2.37089 12.5884 2.24251 12.5326 2.14784 12.4333C2.05318 12.334 2 12.1994 2 12.059C2 11.9185 2.05318 11.7839 2.14784 11.6846C2.24251 11.5853 2.37089 11.5295 2.50477 11.5295H11.9271C12.061 11.5295 12.1894 11.5853 12.284 11.6846C12.3787 11.7839 12.4319 11.9185 12.4319 12.059C12.4319 12.1994 12.3787 12.334 12.284 12.4333C12.1894 12.5326 12.061 12.5884 11.9271 12.5884Z" fill="#009099"/>
<path d="M12.6005 5.52954H3.17822V6.58836H12.6005V5.52954Z" fill="#009099"/>
<path d="M13.2732 8.70581H2.50488V9.76463H13.2732V8.70581Z" fill="#009099"/>
</g>
<defs>
<clipPath id="clip0">
<rect width="12" height="12" fill="white" transform="translate(2 2)"/>
</clipPath>
</defs>
</svg>
