<svg width="16" height="16" viewBox="0 0 16 16" fill="none" xmlns="http://www.w3.org/2000/svg">
<g clip-path="url(#clip2)">
<path d="M14.5117 13.8582H5.23256C5.10322 13.8582 4.97917 13.8048 4.88771 13.7099C4.79625 13.6149 4.74487 13.4861 4.74487 13.3517V3.50645C4.74656 3.37267 4.79848 3.24487 4.88958 3.15027C4.98067 3.05567 5.10374 3.00175 5.23256 3H14.5117C14.6405 3.00175 14.7636 3.05567 14.8547 3.15027C14.9458 3.24487 14.9977 3.37267 14.9994 3.50645V13.3517C14.9994 13.4861 14.948 13.6149 14.8566 13.7099C14.7651 13.8048 14.6411 13.8582 14.5117 13.8582ZM5.72026 12.8453H14.0045V4.01289H5.72026V12.8453Z" fill="#009099"/>
<path d="M2.6122 13.9999C2.48286 13.9999 2.35881 13.9466 2.26735 13.8516C2.17589 13.7566 2.12451 13.6278 2.12451 13.4935V3.81699C2.12451 3.68267 2.17589 3.55386 2.26735 3.45888C2.35881 3.3639 2.48286 3.31055 2.6122 3.31055C2.74155 3.31055 2.86559 3.3639 2.95705 3.45888C3.04851 3.55386 3.0999 3.68267 3.0999 3.81699V13.4935C3.0999 13.6278 3.04851 13.7566 2.95705 13.8516C2.86559 13.9466 2.74155 13.9999 2.6122 13.9999Z" fill="#009099"/>
<path d="M1.48763 5.11358C1.38303 5.11597 1.28052 5.08289 1.19564 5.01935C1.11077 4.95581 1.04815 4.86527 1.01727 4.76146C0.986401 4.65764 0.988954 4.5462 1.02455 4.44402C1.06014 4.34185 1.12684 4.2545 1.21453 4.19523L2.33947 3.39842C2.41906 3.33906 2.51458 3.30713 2.61258 3.30713C2.71057 3.30713 2.80609 3.33906 2.88568 3.39842L4.01063 4.19523C4.11029 4.27002 4.17906 4.38116 4.20318 4.50637C4.22729 4.63159 4.20497 4.76164 4.14068 4.87049C4.06867 4.9742 3.96113 5.04531 3.84017 5.06918C3.71921 5.09304 3.59404 5.06785 3.49042 4.99879L2.61258 4.42482L1.76074 5.0258C1.68075 5.08391 1.58526 5.11461 1.48763 5.11358Z" fill="#009099"/>
<path d="M2.61241 14.0003C2.51466 14.0022 2.4189 13.9715 2.3393 13.9125L1.21436 13.1292C1.11512 13.0508 1.04857 12.9359 1.0284 12.8081C1.00822 12.6803 1.03596 12.5493 1.1059 12.4421C1.17584 12.3349 1.28267 12.2596 1.40443 12.2316C1.5262 12.2037 1.65364 12.2253 1.76058 12.2919L2.61241 12.8929L3.46425 12.2919C3.51701 12.2502 3.57741 12.2201 3.64175 12.2035C3.70609 12.1868 3.77302 12.184 3.83845 12.1951C3.90387 12.2063 3.96643 12.2312 4.02229 12.2683C4.07815 12.3053 4.12613 12.3539 4.16332 12.4109C4.2005 12.4679 4.22611 12.5322 4.23856 12.5998C4.25101 12.6674 4.25006 12.737 4.23575 12.8042C4.22145 12.8714 4.19409 12.9349 4.15535 12.9908C4.11662 13.0467 4.06731 13.0938 4.01046 13.1292L2.88552 13.9125C2.80552 13.9706 2.71003 14.0013 2.61241 14.0003Z" fill="#009099"/>
<path d="M8.23061 13.5611C8.10127 13.5611 7.97722 13.5077 7.88576 13.4127C7.7943 13.3178 7.74292 13.189 7.74292 13.0546V3.50645C7.74292 3.37213 7.7943 3.24331 7.88576 3.14833C7.97722 3.05336 8.10127 3 8.23061 3C8.35996 3 8.484 3.05336 8.57546 3.14833C8.66692 3.24331 8.7183 3.37213 8.7183 3.50645V13.0546C8.71918 13.1214 8.70716 13.1877 8.68296 13.2495C8.65876 13.3114 8.62287 13.3676 8.57741 13.4148C8.53195 13.462 8.47784 13.4992 8.41827 13.5244C8.35871 13.5495 8.2949 13.562 8.23061 13.5611Z" fill="#009099"/>
<path d="M12.5353 11.1774H8.23061C8.10127 11.1774 7.97722 11.1241 7.88576 11.0291C7.7943 10.9341 7.74292 10.8053 7.74292 10.671C7.74292 10.5367 7.7943 10.4079 7.88576 10.3129C7.97722 10.2179 8.10127 10.1646 8.23061 10.1646H12.5353C12.6646 10.1646 12.7887 10.2179 12.8802 10.3129C12.9716 10.4079 13.023 10.5367 13.023 10.671C13.023 10.8053 12.9716 10.9341 12.8802 11.0291C12.7887 11.1241 12.6646 11.1774 12.5353 11.1774Z" fill="#009099"/>
</g>
<defs>
<clipPath id="clip2">
<rect width="14" height="11" fill="white" transform="translate(1 3)"/>
</clipPath>
</defs>
</svg>
