<svg width="20" height="20" viewBox="0 0 20 20" fill="none" xmlns="http://www.w3.org/2000/svg">
<path d="M17.5 4.375H15.625V2.5C15.625 2.33424 15.5592 2.17527 15.4419 2.05806C15.3247 1.94085 15.1658 1.875 15 1.875H5C4.83424 1.875 4.67527 1.94085 4.55806 2.05806C4.44085 2.17527 4.375 2.33424 4.375 2.5V4.375H2.5C2.33424 4.375 2.17527 4.44085 2.05806 4.55806C1.94085 4.67527 1.875 4.83424 1.875 5V17.5C1.875 17.6658 1.94085 17.8247 2.05806 17.9419C2.17527 18.0592 2.33424 18.125 2.5 18.125H17.5C17.6658 18.125 17.8247 18.0592 17.9419 17.9419C18.0592 17.8247 18.125 17.6658 18.125 17.5V5C18.125 4.83424 18.0592 4.67527 17.9419 4.55806C17.8247 4.44085 17.6658 4.375 17.5 4.375ZM8.75 16.875V13.75H11.25V16.875H8.75ZM16.875 16.875H12.5V13.125C12.5 12.9592 12.4342 12.8003 12.3169 12.6831C12.1997 12.5658 12.0408 12.5 11.875 12.5H8.125C7.95924 12.5 7.80027 12.5658 7.68306 12.6831C7.56585 12.8003 7.5 12.9592 7.5 13.125V16.875H3.125V5.625H5C5.16576 5.625 5.32473 5.55915 5.44194 5.44194C5.55915 5.32473 5.625 5.16576 5.625 5V3.125H14.375V5C14.375 5.16576 14.4408 5.32473 14.5581 5.44194C14.6753 5.55915 14.8342 5.625 15 5.625H16.875V16.875Z" fill="#C4C4C4"/>
<path d="M10 3.75C9.25832 3.75 8.5333 3.96993 7.91661 4.38199C7.29993 4.79404 6.81928 5.37971 6.53545 6.06494C6.25162 6.75016 6.17736 7.50416 6.32206 8.23159C6.46675 8.95902 6.8239 9.6272 7.34835 10.1517C7.8728 10.6761 8.54098 11.0332 9.26841 11.1779C9.99584 11.3226 10.7498 11.2484 11.4351 10.9645C12.1203 10.6807 12.706 10.2001 13.118 9.58339C13.5301 8.9667 13.75 8.24168 13.75 7.5C13.7488 6.50579 13.3534 5.55264 12.6504 4.84963C11.9474 4.14662 10.9942 3.75116 10 3.75ZM10 10C9.50555 10 9.0222 9.85338 8.61108 9.57867C8.19995 9.30397 7.87952 8.91352 7.6903 8.45671C7.50108 7.99989 7.45158 7.49723 7.54804 7.01227C7.6445 6.52732 7.8826 6.08186 8.23223 5.73223C8.58187 5.3826 9.02732 5.1445 9.51228 5.04804C9.99723 4.95157 10.4999 5.00108 10.9567 5.1903C11.4135 5.37952 11.804 5.69995 12.0787 6.11107C12.3534 6.5222 12.5 7.00555 12.5 7.5C12.5 8.16304 12.2366 8.79893 11.7678 9.26777C11.2989 9.73661 10.663 10 10 10Z" fill="#C4C4C4"/>
<path d="M10.625 7.24125V6.25C10.625 6.08424 10.5592 5.92527 10.4419 5.80806C10.3247 5.69085 10.1658 5.625 10 5.625C9.83424 5.625 9.67527 5.69085 9.55806 5.80806C9.44085 5.92527 9.375 6.08424 9.375 6.25V7.5C9.37504 7.66575 9.44091 7.82469 9.55813 7.94187L10.1831 8.56688C10.301 8.68072 10.4589 8.74372 10.6228 8.7423C10.7866 8.74087 10.9434 8.67514 11.0593 8.55926C11.1751 8.44338 11.2409 8.28662 11.2423 8.12275C11.2437 7.95888 11.1807 7.801 11.0669 7.68313L10.625 7.24125Z" fill="#C4C4C4"/>
<path d="M5.625 10.625H5C4.65482 10.625 4.375 10.9048 4.375 11.25V11.875C4.375 12.2202 4.65482 12.5 5 12.5H5.625C5.97018 12.5 6.25 12.2202 6.25 11.875V11.25C6.25 10.9048 5.97018 10.625 5.625 10.625Z" fill="#C4C4C4"/>
<path d="M15 10.625H14.375C14.0298 10.625 13.75 10.9048 13.75 11.25V11.875C13.75 12.2202 14.0298 12.5 14.375 12.5H15C15.3452 12.5 15.625 12.2202 15.625 11.875V11.25C15.625 10.9048 15.3452 10.625 15 10.625Z" fill="#C4C4C4"/>
<path d="M5.625 13.75H5C4.65482 13.75 4.375 14.0298 4.375 14.375V15C4.375 15.3452 4.65482 15.625 5 15.625H5.625C5.97018 15.625 6.25 15.3452 6.25 15V14.375C6.25 14.0298 5.97018 13.75 5.625 13.75Z" fill="#C4C4C4"/>
<path d="M15 13.75H14.375C14.0298 13.75 13.75 14.0298 13.75 14.375V15C13.75 15.3452 14.0298 15.625 14.375 15.625H15C15.3452 15.625 15.625 15.3452 15.625 15V14.375C15.625 14.0298 15.3452 13.75 15 13.75Z" fill="#C4C4C4"/>
</svg>
