<svg width="81" height="71" viewBox="0 0 81 71" fill="none" xmlns="http://www.w3.org/2000/svg">
<path fill-rule="evenodd" clip-rule="evenodd" d="M43.8431 2C42.3035 -0.666666 38.4545 -0.666667 36.9149 2L0.541866 65C-0.997734 67.6667 0.926765 71 4.00597 71H76.7521C79.8313 71 81.7558 67.6667 80.2162 65L43.8431 2ZM42.1109 6C41.3411 4.66667 39.4166 4.66666 38.6468 6L4.87177 64.5C4.10197 65.8333 5.06422 67.5 6.60382 67.5H74.1538C75.6934 67.5 76.6557 65.8333 75.8859 64.5L42.1109 6Z" fill="#C4C4C4"/>
<path d="M38.3788 25C38.3788 23.8954 39.2742 23 40.3788 23C41.4834 23 42.3788 23.8954 42.3788 25V49C42.3788 50.1046 41.4834 51 40.3788 51C39.2742 51 38.3788 50.1046 38.3788 49V25Z" fill="#C4C4C4"/>
<path d="M38.3788 59C38.3788 57.8954 39.2742 57 40.3788 57C41.4834 57 42.3788 57.8954 42.3788 59C42.3788 60.1046 41.4834 61 40.3788 61C39.2742 61 38.3788 60.1046 38.3788 59Z" fill="#C4C4C4"/>
</svg>
